<?xml version="1.0" encoding="UTF-8" standalone="no"?>
<!DOCTYPE svg PUBLIC "-//W3C//DTD SVG 1.1//EN" "http://www.w3.org/Graphics/SVG/1.1/DTD/svg11.dtd">
<svg width="100%" height="100%" viewBox="0 0 320 291" version="1.1" xmlns="http://www.w3.org/2000/svg" xmlns:xlink="http://www.w3.org/1999/xlink" xml:space="preserve" xmlns:serif="http://www.serif.com/" style="fill-rule:evenodd;clip-rule:evenodd;stroke-linejoin:round;stroke-miterlimit:2;">
    <g transform="matrix(1,0,0,1,-210.697,-48.8521)">
        <path d="M323.183,317.483C318.478,314.652 314.923,313.088 304.251,305.918C267.272,281.077 225.972,242.143 214.23,187.531C195.992,102.735 252.526,75.381 288.697,74.773C349.584,73.748 366.501,157.443 366.501,157.443C366.501,157.443 397.505,45.289 463.155,48.939C528.805,52.585 554.338,133.735 501.455,227.652C483.423,259.672 455.756,285.575 419.773,313.834L418.229,260.479C418.229,257.103 420.125,254.211 422.863,253.002C436.778,246.855 446.806,229.895 446.806,209.972C446.806,184.879 433.653,164.464 414.106,164.464C394.558,164.464 381.406,184.879 381.406,209.972C381.406,229.895 391.435,246.855 405.349,253.002C408.087,254.211 409.982,257.103 409.982,260.479L408.215,321.612C385.507,334.823 368.934,339.806 368.934,339.806C368.934,339.806 353.955,334.444 333.238,323.343C332.581,298.38 331.884,270.07 331.884,263.109C331.884,254.385 353.611,251.675 353.611,242.949L353.611,172.754C353.611,168.175 350.858,164.464 347.462,164.464C344.067,164.464 341.314,168.175 341.314,172.754L341.314,219.226C341.314,221.558 340.066,223.683 338.112,223.861C336.031,224.051 334.346,221.543 334.346,218.732L334.346,172.754C334.346,168.175 331.593,164.464 328.196,164.464C324.8,164.464 322.047,168.175 322.047,172.754L322.047,218.732C322.047,221.543 320.362,224.051 318.281,223.861C316.327,223.683 315.08,221.558 315.08,219.226L315.08,172.754C315.08,168.175 312.327,164.464 308.931,164.464C305.535,164.464 302.781,168.175 302.781,172.754L302.781,242.949C302.781,251.675 324.508,254.425 324.508,263.109L323.183,317.483ZM396.202,186.603C396.258,184.906 396.384,183.885 396.384,183.885C396.384,183.885 395.802,184.647 395.096,186.254C394.372,187.832 393.496,190.15 392.728,193.033C391.946,195.894 391.247,199.33 390.879,203.1C390.485,206.871 390.368,210.968 391.065,215.256C391.443,217.485 392,219.368 392.677,221.327C393.383,223.196 394.145,224.968 394.945,226.629C396.611,229.932 398.365,232.8 400.069,235.118C401.745,237.437 403.342,239.198 404.595,240.301C405.821,241.444 406.769,241.682 406.756,241.606C406.712,241.667 406.073,241.024 405.37,239.518C404.636,238.051 403.688,235.866 402.627,233.26C401.581,230.629 400.362,227.578 399.235,224.289C398.64,222.657 398.091,220.953 397.635,219.232C397.143,217.585 396.643,215.745 396.466,214.124C395.524,207.191 395.943,199.387 396,193.651C396.079,190.74 396.154,188.299 396.202,186.603Z" style="fill:rgb(240,176,0);fill-rule:nonzero;"/>
    </g>
</svg>
